<svg id="Ebene_1" xmlns="http://www.w3.org/2000/svg" viewBox="360 75.1 2000 650.9"><style>.st0{fill:#F08418;} .st1{fill:#fff;}</style><path class="st0" d="M767.4 302.2c-4.7 1.4-8.4 1.9-13.3 1.9-40 0-98.8-139.8-98.8-186.4 0-17.1 4.1-22.9 9.8-27.8-42.9 5-93.2 19.4-117.7 38.2-3.5 2.7-6.5 5.5-8.8 8.3-4.1 5.7-6.5 14.7-6.5 26.1 0 72.7 77.6 237.5 132.3 237.5 25.3.1 67.9-41.5 103-97.8M741.9 85c50.6 0 101.3 8.2 101.3 36.7 0 58-36.8 128.2-55.5 128.2-33.5 0-75.1-93.1-75.1-139.6-.1-21.2 8.1-25.3 29.3-25.3"/><path class="st0" d="M686.8 392.4c-62.7 42.4-131.4 41.2-131.4 41.2 53.2-28.2 36.9-57.6 36.9-57.6s-6.5-20.6-48.9 15.2-69.5 19.6-69.5 19.6 50-26.1 9.8-52.1-54.3-4.3-64.1 25c-9.8 29.3-52.3 16.2-52.3 16.2s52.3-16.3 37.1-46.2c-32.6-64.2 22.8-50.5 53.2-46.1s48.9-16.3 29.3-50-66.3 0-66.3 0-6.5-51.1 41.3-50 56.5-10.9 61.9-25-46.3-13.5-46.3-13.5c15.6-21.1 83.7-49.8 83.7-49.8s66-29.9 104-29.5c0 0-23.8 11.1-2.2 69.3s40 100.2 54.9 117.2 19.8 29.5 49.5 25.8c0 .1-33.6 58.4-80.6 90.3z"/><path class="st1" d="M983.9 171.1v204.6h-28.5V171.1h-50.5v-24.9h129.5v24.9h-50.5zm150.2 98v106.6h-29.5V269.1l-58.7-123h31.5l43.3 95.4 43.3-95.3h29.8l-59.7 122.9zm213.8-54.1c0 12.5-1.1 23.3-3.4 32.6s-6 17-11 23.1-11.6 10.7-19.7 13.8c-8.1 3.1-17.9 4.6-29.5 4.6h-27.5v86.6h-28.5V146.2c5.5-.4 11.3-.9 17.4-1.3 5.2-.4 11.2-.7 17.9-.8 6.7-.1 13.4-.2 20.2-.2 12.5 0 22.8 1.8 31.1 5.4s14.9 8.6 19.8 15.1 8.4 14 10.3 22.6c1.9 8.6 2.9 18 2.9 28zm-29.2 2.3c0-16.4-2.2-28.8-6.7-37.2s-12.6-12.6-24.4-12.6c-9.2 0-16.6.3-22.3 1-3.3.4-6.1.8-8.5 1v95.7h30.8c4.6 0 8.8-.8 12.6-2.5 3.8-1.6 7.1-4.3 9.8-8 2.7-3.7 4.9-8.6 6.4-14.8 1.6-6.1 2.3-13.6 2.3-22.6zm204 41c0 20.1-1 37.7-3.1 52.6-2.1 15-5.7 27.4-10.8 37.4-5.1 10-12.1 17.4-21 22.3s-20.1 7.4-33.6 7.4c-13.6 0-24.8-2.5-33.6-7.4-8.9-4.9-15.9-12.3-21-22.3-5.1-9.9-8.8-22.4-10.8-37.4-2.1-15-3.1-32.5-3.1-52.6 0-19.2 1-36 3.1-50.3s5.7-26.2 10.8-35.7c5.1-9.5 12.1-16.6 21-21.3s20-7.1 33.6-7.1 24.8 2.4 33.6 7.1c8.9 4.7 15.8 11.8 21 21.3 5.1 9.5 8.7 21.4 10.8 35.7 2 14.3 3.1 31.1 3.1 50.3zm-29.2 1.7c0-18.1-.7-33.1-2-44.9-1.3-11.8-3.5-21.2-6.6-28.2s-7.1-11.9-12.1-14.8c-5-2.8-11.3-4.3-18.7-4.3-7.4 0-13.7 1.4-18.7 4.3-5 2.8-9.1 7.8-12.1 14.8-3.1 7-5.2 16.4-6.6 28.2-1.3 11.8-2 26.8-2 44.9 0 17.7.7 32.5 2 44.4s3.5 21.6 6.6 29 7.1 12.7 12.1 15.9c5 3.2 11.3 4.8 18.7 4.8 7.4 0 13.7-1.6 18.7-4.8 5-3.2 9.1-8.5 12.1-15.9 3.1-7.4 5.2-17.1 6.6-29 1.3-11.9 2-26.7 2-44.4zm172.8 50.8c0 24.5-4.6 41.8-13.9 52s-23.1 15.2-41.5 15.2c-3.9 0-8.3-.3-13-.8s-9.2-1.1-13.4-1.8l-11-1.8s-4.9-.9-5.6-1.2v-24.6c2 .4 4.6.9 8 1.5 3.4.5 7 1.1 11 1.6 3.9.5 8 1 12.1 1.5 4.1.4 8 .7 11.5.7 8.3 0 15-3.3 20-10s7.5-16.3 7.5-29c0-15.3-1.8-26.7-5.4-34.3-3.6-7.5-11.2-11.3-22.8-11.3H1583v-23.9h23.6c6.6 0 11.7-1.5 15.6-4.4 3.8-3 6.6-6.6 8.4-10.8 1.7-4.3 2.8-8.7 3.3-13.3.4-4.6.7-8.5.7-11.8 0-13.1-2-22.5-6.1-28-4-5.6-10.2-8.4-18.5-8.4-7.2 0-14.5.7-22 2-7.4 1.3-13.6 2.5-18.4 3.6v-24.1c.9-.2 2.7-.6 5.4-1.1 2.7-.5 5.9-1.2 9.5-1.8 3.6-.7 7.6-1.3 12-1.8s8.6-.8 12.8-.8c8.5 0 16.1 1 22.6 3 6.6 2 12.1 5.4 16.6 10.3 4.5 4.9 7.9 11.4 10.3 19.5 2.4 8.1 3.6 18.3 3.6 30.5 0 11.1-1.9 21.1-5.6 30s-10.2 14.7-19.3 17.5c10.7 1.5 18.2 7.2 22.5 17.1s6.3 22.8 6.3 39z"/><path class="st0" d="M1822 372.4c-1.7.4-4.1 1-7.2 1.6-3.1.7-6.3 1.3-9.7 1.8l-10.3 1.5c-3.5.4-6.6.7-9.2.7-11.8 0-21.9-1.7-30.2-5.1-8.3-3.4-15.1-9.6-20.5-18.5-5.4-9-9.3-21.3-11.8-36.9s-3.8-35.7-3.8-60.2c0-24.3 1.4-43.8 4.3-58.5 2.8-14.8 7.2-26.2 13-34.4s13.1-13.7 21.8-16.4c8.7-2.7 19.1-4.1 31.2-4.1 5.2 0 10.9.5 16.9 1.5s11.2 2 15.6 3.1v24.3c-5.5-1.3-11.6-2.3-18.5-3.1-6.9-.8-13.5-1.2-19.8-1.2-5.9 0-11.1 1-15.6 3.1s-8.2 6.3-11 12.8c-2.8 6.4-5 15.6-6.4 27.5-1.4 11.9-2.1 27.8-2.1 47.7 0 20.6.8 37 2.3 49.3 1.5 12.4 3.8 21.8 6.7 28.4 3 6.6 6.6 10.9 11 12.9 4.4 2.1 9.5 3.1 15.4 3.1 6.8 0 13.8-.5 21-1.6s12.9-2.2 17-3.3v24h-.1zm141.4 3.3l-12.5-58H1887l-12.8 58H1845l55.4-229.5h37.7l54.4 229.5h-29.1zm-44.6-207.9l-26.6 125.3h53.5l-26.9-125.3zm233.5 207.9V169.8l-35.1 128.9H2090l-35.1-128.9v205.9h-26.2V146.2h46.2l29.8 117.4 29.5-117.4h45.3v229.5h-27.2zM2354.9 215c0 12.5-1.2 23.3-3.4 32.6-2.3 9.3-6 17-11 23.1s-11.6 10.7-19.7 13.8c-8.1 3.1-17.9 4.6-29.5 4.6h-27.5v86.6h-28.5V146.2c5.5-.4 11.3-.9 17.4-1.3 5.2-.4 11.2-.7 17.9-.8 6.7-.1 13.4-.2 20.2-.2 12.5 0 22.8 1.8 31.2 5.4 8.3 3.6 14.9 8.6 19.8 15.1s8.4 14 10.3 22.6c1.8 8.6 2.8 18 2.8 28zm-29.2 2.3c0-16.4-2.2-28.8-6.7-37.2s-12.6-12.6-24.4-12.6c-9.2 0-16.6.3-22.3 1-3.3.4-6.1.8-8.5 1v95.7h30.8c4.6 0 8.8-.8 12.6-2.5 3.8-1.6 7.1-4.3 9.8-8 2.7-3.7 4.9-8.6 6.4-14.8 1.5-6.1 2.3-13.6 2.3-22.6z"/><path class="st1" d="M1023.9 711.4c-1.8.4-4.2 1-7.2 1.6-3.1.7-6.3 1.3-9.7 1.8l-10.3 1.5c-3.5.4-6.6.7-9.2.7-11.8 0-21.9-1.7-30.2-5.1-8.3-3.4-15.1-9.6-20.5-18.5-5.4-9-9.3-21.3-11.8-36.9-2.5-15.6-3.8-35.7-3.8-60.2 0-24.3 1.4-43.8 4.3-58.5 2.8-14.8 7.2-26.2 13-34.4s13.1-13.7 21.8-16.4c8.7-2.7 19.1-4.1 31.2-4.1 5.2 0 10.9.5 16.9 1.5s11.2 2 15.6 3.1v24.3c-5.5-1.3-11.6-2.3-18.5-3.1-6.9-.8-13.5-1.2-19.8-1.2-5.9 0-11.1 1-15.6 3.1s-8.1 6.3-11 12.8c-2.8 6.4-5 15.6-6.4 27.5s-2.1 27.8-2.1 47.7c0 20.6.8 37 2.3 49.3 1.5 12.4 3.8 21.8 6.7 28.4 3 6.6 6.6 10.9 11 12.9 4.4 2.1 9.5 3.1 15.4 3.1 6.8 0 13.8-.5 21-1.6s12.9-2.2 17.1-3.3v24h-.2zm166.6-114.1c0 20.1-1 37.7-3.1 52.6-2.1 15-5.7 27.4-10.8 37.4-5.1 10-12.1 17.4-21 22.3-8.9 4.9-20.1 7.4-33.6 7.4-13.6 0-24.8-2.5-33.6-7.4-8.9-4.9-15.8-12.3-21-22.3-5.1-9.9-8.8-22.4-10.8-37.4-2.1-15-3.1-32.5-3.1-52.6 0-19.2 1-36 3.1-50.3s5.7-26.2 10.8-35.7c5.1-9.5 12.1-16.6 21-21.3 8.9-4.7 20.1-7.1 33.6-7.1s24.8 2.4 33.6 7.1c8.9 4.7 15.8 11.8 21 21.3 5.1 9.5 8.7 21.4 10.8 35.7 2.1 14.3 3.1 31 3.1 50.3zm-29.2 1.6c0-18.1-.7-33.1-2-44.9-1.3-11.8-3.5-21.2-6.6-28.2-3.1-7-7.1-11.9-12.1-14.8-5-2.8-11.3-4.3-18.7-4.3s-13.7 1.4-18.7 4.3c-5 2.8-9.1 7.8-12.1 14.8-3.1 7-5.3 16.4-6.6 28.2-1.3 11.8-2 26.8-2 44.9 0 17.7.7 32.5 2 44.4 1.3 11.9 3.5 21.6 6.6 29 3.1 7.4 7.1 12.7 12.1 15.9s11.3 4.8 18.7 4.8 13.7-1.6 18.7-4.8 9.1-8.5 12.1-15.9c3.1-7.4 5.3-17.1 6.6-29 1.4-11.9 2-26.7 2-44.4zm78.4 115.8V485.1h28.5v204.6h73.1v24.9l-101.6.1zm258.4-117.4c0 20.1-1 37.7-3.1 52.6-2.1 15-5.7 27.4-10.8 37.4-5.1 10-12.1 17.4-21 22.3-8.9 4.9-20.1 7.4-33.6 7.4-13.6 0-24.8-2.5-33.6-7.4-8.9-4.9-15.8-12.3-21-22.3-5.1-9.9-8.8-22.4-10.8-37.4-2.1-15-3.1-32.5-3.1-52.6 0-19.2 1-36 3.1-50.3 2.1-14.3 5.7-26.2 10.8-35.7s12.1-16.6 21-21.3c8.9-4.7 20.1-7.1 33.6-7.1 13.6 0 24.8 2.4 33.6 7.1 8.9 4.7 15.8 11.8 21 21.3 5.1 9.5 8.7 21.4 10.8 35.7 2 14.3 3.1 31 3.1 50.3zm-29.2 1.6c0-18.1-.7-33.1-2-44.9-1.3-11.8-3.5-21.2-6.6-28.2s-7.1-11.9-12.1-14.8c-5-2.8-11.3-4.3-18.7-4.3-7.4 0-13.7 1.4-18.7 4.3-5 2.8-9.1 7.8-12.1 14.8-3.1 7-5.3 16.4-6.6 28.2-1.3 11.8-2 26.8-2 44.9 0 17.7.7 32.5 2 44.4s3.5 21.6 6.6 29 7.1 12.7 12.1 15.9 11.3 4.8 18.7 4.8c7.4 0 13.7-1.6 18.7-4.8s9.1-8.5 12.1-15.9c3.1-7.4 5.3-17.1 6.6-29 1.4-11.9 2-26.7 2-44.4zm191.5 112.5c-8.7 1.8-17.3 3.1-25.6 4.1-8.3 1-16.9 1.5-25.9 1.5-12.5 0-23.1-1.7-31.8-5.1-8.7-3.4-15.8-9.6-21.1-18.5-5.4-9-9.2-21.3-11.6-36.9-2.4-15.6-3.6-35.7-3.6-60.2 0-24.3 1.5-43.8 4.6-58.5 3.1-14.8 7.7-26.2 13.9-34.4s14.2-13.7 23.8-16.4c9.6-2.7 20.9-4.1 33.8-4.1 5.7 0 12.2.5 19.5 1.5s13.1 2 17.2 3.1v23.6c-7-1.3-14.1-2.3-21.3-3.1-7.2-.8-14.3-1.1-21.3-1.1s-13.1 1-18.2 3.1-9.4 6.4-12.8 13-5.9 15.9-7.5 27.9-2.5 28-2.5 47.9c0 20.6.7 37.1 2.1 49.5 1.4 12.5 3.7 22 6.7 28.7 3.1 6.7 6.9 11 11.6 13.1s10.3 3.1 16.9 3.1c3.7 0 7.9-.2 12.5-.7 4.6-.4 9.1-1 13.4-1.6v-72.8H1604v-23.9h56.4v117.2zm127.6 3.3l-50.2-205.3v205.3h-26.6V485.1h46.6l50.5 205.3V485.1h26.6v229.5l-46.9.1zm102.6 0V485.1h107.6v24h-79v75.1h70.8v23.9h-70.8v82.6h79v23.9l-107.6.1z"/><path class="st0" d="M2047.3 714.7v-24.6h39.7v-179l-43 17.1v-26.6l39.7-16.4h31.2v204.9h32.5v24.6h-100.1zm191.5 0h-29.2l54.8-204.9h-72.8v-24.7h100v31.8l-52.8 197.8z"/></svg>