<?xml version="1.0" encoding="utf-8"?>
<!-- Generator: Adobe Illustrator 17.1.0, SVG Export Plug-In . SVG Version: 6.00 Build 0)  -->
<!DOCTYPE svg PUBLIC "-//W3C//DTD SVG 1.1//EN" "http://www.w3.org/Graphics/SVG/1.1/DTD/svg11.dtd">
<svg version="1.1" id="Ebene_1" xmlns="http://www.w3.org/2000/svg" xmlns:xlink="http://www.w3.org/1999/xlink" x="0px" y="0px"
	 viewBox="0 0 200 200" enable-background="new 0 0 200 200" xml:space="preserve">
<g>
	<circle fill="#CBBA97" cx="99.2" cy="99.3" r="97.7"/>
</g>
<g>
	<g>
		<path fill="#B89876" d="M179,43.1c-4.5-6.4-9.8-12.2-15.6-17.4c-8.2,7.6-37.8,18-140.6,12.8c-2.5,3.2-4.9,6.5-7,10
			c11.8,0.5,39.5,2.4,65.7,9.2C107.3,64.3,156.2,50.5,179,43.1z"/>
	</g>
	<g>
		<path fill="#B89876" d="M125.4,125.8c-25.1,12.4-29.7,2.3-40.5,4.7c-5.4,1.2-6.6,5.2-20.9,7.2c-23.6,3.3-28.3,3.5-53.6,2.3
			c1.3,2.7,2.6,5.4,4.1,8c20.1,0.5,113,2.1,130.4-14.2c0,0,23.2-16.4,49.5-13.3c0.7-3.1,1.2-6.2,1.6-9.4
			C182.2,112.3,145.5,115.9,125.4,125.8z"/>
	</g>
	<g>
		<path fill="#DBC59E" d="M18.5,154.5c5.2,7.6,11.4,14.4,18.4,20.2c12.6-7,46.2-16.8,131.9-6.9c4.3-4.4,8.2-9.2,11.6-14.3
			C158.9,156.1,88.5,162.9,18.5,154.5z"/>
	</g>
	<g>
		<path fill="#F8E2B2" d="M163.4,25.7c-8-7-17.1-12.6-27-16.7C114.9,31.2,57.4,31.3,30.3,30c-2.7,2.7-5.2,5.5-7.5,8.4
			C125.6,43.7,155.2,33.3,163.4,25.7z"/>
	</g>
	<path fill="#F8E2B2" d="M194.2,76.6c-2.9-12.2-8.1-23.5-15.2-33.5c-22.9,7.4-71.7,21.2-97.6,14.5c-26.2-6.8-53.9-8.7-65.7-9.2
		c-1.3,2.2-2.6,4.5-3.7,6.8c10.9,2.7,28.4,10.1,37.5,13.1C111.1,88.4,173.2,80.3,194.2,76.6z"/>
	<path fill="#F8E2B2" d="M64,137.8c14.3-2,15.5-6.1,20.9-7.2c10.8-2.3,15.3,7.7,40.5-4.7c20.1-9.9,56.9-13.5,70.8-14.6
		c0.5-3.9,0.8-7.9,0.8-11.9c0,0,0,0,0,0c-13.4,5.6-39.5,6.5-39.5,6.5s-31.1-1.7-77.6,4.7c-35.7,4.9-65.4,4-77.2,3.4
		c1.4,9.2,4.1,18,7.8,26.2C35.7,141.3,40.4,141.1,64,137.8z"/>
	<g>
		<path fill="#C4966E" d="M145,133.9c-17.5,16.3-110.3,14.7-130.4,14.2c1.3,2.2,2.6,4.3,4,6.4c69.9,8.5,140.4,1.6,161.9-0.9
			c6.6-9.8,11.4-21,14.1-32.9C168.1,117.5,145,133.9,145,133.9z"/>
	</g>
	<path fill="#F8E2B2" d="M37,174.7c3.8,3.1,7.8,6,12,8.5c45.5-7.6,81.9-2,97.9,1.4c8.1-4.5,15.5-10.2,22-16.8
		C83.2,157.9,49.6,167.7,37,174.7z"/>
	<path fill="#C4966E" d="M196.3,89c-0.2-1.6-0.4-3.1-0.6-4.7C175.5,86.8,77.5,96.9,5.9,70.2c-2.6,8.2-4,17-4.3,26
		C24.1,98.5,118.7,106.8,196.3,89z"/>
</g>
<linearGradient id="SVGID_1_" gradientUnits="userSpaceOnUse" x1="1.4672" y1="99.3223" x2="99.1629" y2="99.3223">
	<stop  offset="0" style="stop-color:#1A171B;stop-opacity:0.5"/>
	<stop  offset="2.616996e-02" style="stop-color:#1A171B;stop-opacity:0.4869"/>
	<stop  offset="1" style="stop-color:#1A171B;stop-opacity:0"/>
</linearGradient>
<path fill="url(#SVGID_1_)" d="M51.9,99.3c0,68.1,47.3,97.7,47.3,97.7c-54,0-97.7-43.7-97.7-97.7c0-54,43.7-97.7,97.7-97.7
	C99.2,1.6,51.9,33.7,51.9,99.3z"/>
</svg>
