<?xml version="1.0" encoding="utf-8"?>
<!-- Generator: Adobe Illustrator 17.1.0, SVG Export Plug-In . SVG Version: 6.00 Build 0)  -->
<!DOCTYPE svg PUBLIC "-//W3C//DTD SVG 1.1//EN" "http://www.w3.org/Graphics/SVG/1.1/DTD/svg11.dtd">
<svg version="1.1" id="Ebene_1" xmlns="http://www.w3.org/2000/svg" xmlns:xlink="http://www.w3.org/1999/xlink" x="0px" y="0px"
	 viewBox="0 0 224.5 200" enable-background="new 0 0 224.5 200" xml:space="preserve">
<g>
	<line fill="none" stroke="#C6C7C8" stroke-width="2" stroke-miterlimit="10" x1="130.3" y1="9.6" x2="100.2" y2="91.1"/>
	<circle fill="#F6F6F6" cx="130.3" cy="9.6" r="2.6"/>
	<polygon fill="#F6F6F6" points="203.4,90.5 110.9,56.3 125.8,15.9 218.3,50 201.2,66.4 	"/>
	
		<rect x="130" y="46.2" transform="matrix(-0.938 -0.3467 0.3467 -0.938 312.0263 177.2572)" fill="none" width="83.8" height="29"/>
	
		<text transform="matrix(0.938 0.3467 -0.3467 0.938 131.315 49.6349)" fill="#1A292B" font-family="'Share-Tech'" font-size="25.948">Menü</text>
</g>
<g>
	<g>
		<circle fill="#E2D6B1" cx="101.8" cy="128.8" r="56.4"/>
	</g>
	<g>
		<g>
			<path fill="#D6C377" d="M158,132.9c0.1-1.4,0.2-2.7,0.2-4.1c0-2.1-0.1-4.2-0.4-6.3c-23.1,5.9-43.4,7.9-60,7.9
				c-10.9,0-20.2-0.8-27.8-1.9c-10.3-1.5-18.5-3.6-24.4-5.5c-0.2,1.9-0.3,3.8-0.3,5.8c0,1.5,0.1,3,0.2,4.5
				C63.3,138.9,103,147.1,158,132.9z"/>
		</g>
		<g>
			<path fill="#E6BEB8" d="M155.5,146.2c1.3-4,2.1-8.1,2.5-12.4c-23.2,5.9-43.5,7.9-60.2,7.9c-10.9,0-20.2-0.8-27.8-1.9
				c-10.3-1.5-18.5-3.6-24.4-5.5c0.4,4.3,1.3,8.5,2.7,12.5C66.9,152.2,104.4,158.8,155.5,146.2z"/>
		</g>
		<g>
			<path fill="#EF9654" d="M156.9,116.8c-0.6-2.6-1.3-5.2-2.2-7.7c-21.8,5.3-41,7.1-56.9,7.1c-10.9,0-20.2-0.8-27.8-1.9
				c-8.6-1.3-15.8-2.9-21.4-4.6c-0.9,2.4-1.6,4.9-2.1,7.5C64.6,122.8,103.4,130.4,156.9,116.8z"/>
		</g>
		<g>
			<path fill="#F6CD87" d="M148,96.5c-0.9-1.4-1.9-2.7-3-3.9c-17.9,4.4-33.9,5.9-47.4,5.9c-10.7,0-20-1-27.5-2.3
				c-4.5-0.8-8.7-1.7-12.4-2.7c-1,1.3-2,2.5-2.9,3.9c4.5,1.3,9.6,2.5,15.5,3.5C87.8,104,114.6,105.2,148,96.5z"/>
		</g>
		<g>
			<path fill="#EF9654" d="M69.5,174.8c-0.2,0-0.4-0.1-0.6-0.1c9.3,6.7,20.6,10.6,32.9,10.6c13.5,0,25.9-4.8,35.6-12.7
				c-15.3,3.3-28.9,4.6-40.6,4.6C86.1,177.1,76.9,176.1,69.5,174.8z"/>
		</g>
		<g>
			<path fill="#AEDEF4" d="M139.9,87.2c-1.8-1.7-3.8-3.2-5.8-4.7c-13.5,2.6-25.7,3.5-36.4,3.5s-20-1-27.5-2.3
				c-0.7-0.1-1.3-0.2-1.9-0.3c-2,1.5-3.8,3-5.6,4.7c2.4,0.5,5,1.1,7.7,1.5C86.4,92.4,110.2,93.7,139.9,87.2z"/>
		</g>
		<g>
			<path fill="#D6C377" d="M133,81.8c-9-6-19.7-9.5-31.3-9.5c-12.2,0-23.4,3.9-32.6,10.4c0.4,0.1,0.8,0.1,1.1,0.2
				C85.1,85.5,106.6,86.8,133,81.8z"/>
		</g>
		<g>
			<path fill="#ABDCF0" d="M157.5,120c-54.4,13.9-93.7,6-111.6,0.4l-0.1,0.9c5.9,1.9,14.1,3.9,24.2,5.4c7.6,1.2,17,2,27.8,2
				c16.6,0,36.8-2,59.8-7.8L157.5,120z"/>
		</g>
		<path fill="#F09951" d="M97.8,154.3c16,0,35.3-1.8,57.3-7.2c0.1-0.3,0.2-0.6,0.3-0.9c-51.1,12.6-88.6,6.1-107.2,0.6
			c0.1,0.3,0.2,0.7,0.4,1c5.6,1.6,12.8,3.3,21.4,4.6C77.6,153.5,87,154.3,97.8,154.3z"/>
		<g>
			<path fill="#AEDEF4" d="M69.7,162.1c-6.1-1.1-11.5-2.5-16.1-3.9c0.2,0.4,0.5,0.7,0.7,1.1c1,1.6,2.1,3.1,3.3,4.6
				c0.3,0.4,0.6,0.8,0.9,1.1c3.3,0.9,7,1.7,10.9,2.4c7.5,1.3,16.6,2.4,27.3,2.4c14.1,0,30.8-1.7,49.8-6.8c0.3-0.4,0.6-0.7,0.8-1.1
				c1.1-1.4,2-2.9,3-4.5c0.2-0.3,0.4-0.7,0.6-1C115.5,166.6,87.6,165.4,69.7,162.1z"/>
		</g>
		<g>
			<path fill="#D6C377" d="M69.7,173.9c-0.8-0.1-1.6-0.3-2.3-0.4c0.5,0.4,1,0.8,1.6,1.2c0.2,0,0.4,0.1,0.6,0.1
				c7.5,1.3,16.6,2.4,27.3,2.4c11.8,0,25.4-1.2,40.6-4.6c0.5-0.4,0.9-0.8,1.4-1.2C109.1,178.1,85.5,176.8,69.7,173.9z"/>
		</g>
		<g>
			<path fill="#E6BEB8" d="M152.9,104.8c-0.1-0.3-0.2-0.5-0.4-0.8c-0.3-0.6-0.6-1.3-1-1.9c-0.1-0.3-0.3-0.5-0.4-0.8
				c-34.9,9.6-62.7,8.4-80.8,5.3c-7.1-1.2-13.3-2.8-18.4-4.4c-0.1,0.3-0.3,0.5-0.4,0.8c-0.3,0.6-0.6,1.2-0.9,1.8
				c-0.1,0.3-0.2,0.5-0.4,0.8c-0.5,1.1-0.9,2.1-1.3,3.2c18.7,5.3,55.5,11.6,105.4-0.6C153.9,107.2,153.4,106,152.9,104.8z"/>
		</g>
		<path fill="#F09951" d="M144.4,91.8c-0.4-0.4-0.7-0.8-1.1-1.2c-0.2-0.2-0.5-0.5-0.7-0.7c-30.9,7.2-55.8,6-72.3,3.2
			c-3.7-0.6-7.2-1.4-10.3-2.2c-0.2,0.2-0.4,0.5-0.6,0.7c-0.4,0.4-0.7,0.8-1,1.2c-0.2,0.2-0.4,0.5-0.6,0.7c3.7,1,7.9,1.9,12.4,2.7
			c7.5,1.3,16.8,2.3,27.5,2.3c13.6,0,29.5-1.6,47.4-5.9C144.8,92.3,144.6,92.1,144.4,91.8z"/>
	</g>
</g>
<g>
	<linearGradient id="SVGID_1_" gradientUnits="userSpaceOnUse" x1="45.3" y1="128.7999" x2="101.7" y2="128.7999">
		<stop  offset="0" style="stop-color:#1A171B;stop-opacity:0.5"/>
		<stop  offset="2.616996e-02" style="stop-color:#1A171B;stop-opacity:0.4869"/>
		<stop  offset="1" style="stop-color:#1A171B;stop-opacity:0"/>
	</linearGradient>
	<path fill="url(#SVGID_1_)" d="M74.4,128.8c0,39.4,27.3,56.4,27.3,56.4c-31.2,0-56.4-25.3-56.4-56.4c0-31.2,25.3-56.4,56.4-56.4
		C101.7,72.4,74.4,90.9,74.4,128.8z"/>
</g>
<g>
	<path opacity="0.5" fill="#FFFFFF" enable-background="new    " d="M157.4,119.5c0.2,1,0.3,2,0.4,3c21.5,15.3,33.4,30.6,29.1,40.1
		c-4,8.9-21.4,10.5-45,5.8c-15.3-3.1-33.3-8.9-51.8-17.2c-17.1-7.8-32.5-16.7-44.7-25.5c-20.7-15-32.2-30-28-39.2
		c4.4-9.8,25.1-10.8,52.4-4.1c0.8-0.6,1.6-1.1,2.5-1.6c-35.1-9.4-62.8-8.1-68.7,5.1c-6.2,13.8,12.2,38.3,44.3,59.8
		c10.6,7.1,22.7,13.9,36,19.8c14.4,6.5,28.6,11.3,41.9,14.5c36,8.8,64.9,6,70.9-7.4C202.4,159.6,186.1,139,157.4,119.5z"/>
	<g opacity="0.2">
		<path fill="#FFFFFF" d="M158.2,126.8c0,0.7,0.1,1.3,0.1,2c0,0.7,0,1.4-0.1,2.1c6,5.3,8.9,9.9,7.6,12.8c-1.1,2.4-4.8,3.4-10.5,3.1
			c-12.1-0.5-33-6.5-55.6-16.7c-20.9-9.4-38.3-20-47.4-28.4c-5.4-5-7.9-9.2-6.7-11.9c1.5-3.3,8.1-3.9,17.8-2.3c1-0.9,1.9-1.7,3-2.6
			C46,80.4,31.1,81.3,28,88.4c-2.9,6.5,4.4,17.7,18.4,29.5c11.5,9.6,27.5,19.7,46.2,28.1c20,9,39.4,14.4,54.7,16.2
			c16.6,2,28.5-0.1,31.3-6.2C181.6,149.2,173.4,138.3,158.2,126.8z"/>
	</g>
</g>
</svg>
