<?xml version="1.0" encoding="utf-8"?>
<!-- Generator: Adobe Illustrator 17.1.0, SVG Export Plug-In . SVG Version: 6.00 Build 0)  -->
<!DOCTYPE svg PUBLIC "-//W3C//DTD SVG 1.1//EN" "http://www.w3.org/Graphics/SVG/1.1/DTD/svg11.dtd">
<svg version="1.1" id="Ebene_1" xmlns="http://www.w3.org/2000/svg" xmlns:xlink="http://www.w3.org/1999/xlink" x="0px" y="0px"
	 viewBox="0 0 200 200" enable-background="new 0 0 200 200" xml:space="preserve">
<g>
	<g>
		<circle fill="#E27F7F" cx="100.2" cy="99.7" r="99.2"/>
	</g>
	<g>
		<g>
			<g>
				<path fill="#D84443" d="M94.1,75.3c0-16.8-30.2-30.5-67.4-30.5c-3.2,0-6.4,0.1-9.5,0.3C7,60.8,1,79.5,1,99.6c0,1.3,0,2.6,0.1,4
					c7.9,1.5,16.6,2.3,25.6,2.3C63.9,105.8,94.1,92.2,94.1,75.3z"/>
			</g>
			<g>
				<path fill="#D84443" d="M91.1,17.9c0,17.1,30.9,31,68.9,31c8.5,0,16.6-0.7,24.2-2c-17-27.2-46.9-45.5-81.1-46.5
					C95.6,5.4,91.1,11.4,91.1,17.9z"/>
			</g>
			<g>
				<path fill="#D84443" d="M161,158.2c0-6.9-46.7-12.5-104.4-12.5c-15.6,0-30.4,0.4-43.7,1.1c4.7,8.7,10.7,16.6,17.7,23.4
					c8.3,0.3,17,0.4,26,0.4C114.3,170.7,161,165.1,161,158.2z"/>
			</g>
			<g>
				<path fill="#D84443" d="M109.1,76.8c0,5,29.5,9,65.9,9c8.2,0,16-0.2,23.3-0.6c-0.8-5.9-2.2-11.5-4-17
					c-6.1-0.3-12.5-0.4-19.2-0.4C138.6,67.9,109.1,71.9,109.1,76.8z"/>
			</g>
			<g>
				<path fill="#D84443" d="M163.5,111.8c-42.8,0-77.4,5.6-77.4,12.5c0,6.9,34.7,12.5,77.4,12.5c10.2,0,20-0.3,28.9-0.9
					c2.8-7.2,4.9-14.8,5.9-22.7C187.9,112.3,176.1,111.8,163.5,111.8z"/>
			</g>
			<g>
				<path fill="#D84443" d="M72.1,13.9c0-2.9-2-5.6-5.3-7.8C54.2,10.6,42.7,17.6,33,26.5c3.2,0.6,6.6,0.9,10.1,0.9
					C59.2,27.4,72.1,21.4,72.1,13.9z"/>
			</g>
			<g>
				<path fill="#D84443" d="M91.1,191.7c0-5-9.6-9-21.5-9c-7.1,0-13.5,1.5-17.4,3.7c10.2,5.6,21.4,9.5,33.4,11.2
					C89.1,196.1,91.1,194,91.1,191.7z"/>
			</g>
		</g>
		<ellipse fill="#D84443" cx="53.3" cy="125.5" rx="11.6" ry="4.1"/>
	</g>
</g>
<g>
	<linearGradient id="SVGID_1_" gradientUnits="userSpaceOnUse" x1="0.9899" y1="99.6215" x2="100.1727" y2="99.6215">
		<stop  offset="0" style="stop-color:#1A171B;stop-opacity:0.5"/>
		<stop  offset="2.616996e-02" style="stop-color:#1A171B;stop-opacity:0.4869"/>
		<stop  offset="1" style="stop-color:#1A171B;stop-opacity:0"/>
	</linearGradient>
	<path fill="url(#SVGID_1_)" d="M52.2,99.6c0,69.2,48,99.2,48,99.2C45.4,198.8,1,154.4,1,99.6C1,44.8,45.4,0.4,100.2,0.4
		C100.2,0.4,52.2,33,52.2,99.6z"/>
</g>
</svg>
