<?xml version="1.0" encoding="utf-8"?>
<!-- Generator: Adobe Illustrator 17.1.0, SVG Export Plug-In . SVG Version: 6.00 Build 0)  -->
<!DOCTYPE svg PUBLIC "-//W3C//DTD SVG 1.1//EN" "http://www.w3.org/Graphics/SVG/1.1/DTD/svg11.dtd">
<svg version="1.1" id="Ebene_1" xmlns="http://www.w3.org/2000/svg" xmlns:xlink="http://www.w3.org/1999/xlink" x="0px" y="0px"
	 viewBox="0 0 200 200" enable-background="new 0 0 200 200" xml:space="preserve">
<g>
	<g>
		<g>
			<circle fill="#6C8EC1" cx="100" cy="99.5" r="97.2"/>
		</g>
		<g>
			<ellipse fill="#2C4974" cx="123" cy="35.6" rx="26.4" ry="17.1"/>
		</g>
		<g>
			<ellipse fill="#2C4974" cx="106.4" cy="96.8" rx="17.6" ry="7.3"/>
		</g>
		<g>
			<ellipse fill="#2C4974" cx="35.4" cy="84.6" rx="10.3" ry="16.2"/>
		</g>
		<g>
			<ellipse fill="#2C4974" cx="61.3" cy="128.6" rx="14.7" ry="11.7"/>
		</g>
		<g>
			<circle fill="#2C4974" cx="139.6" cy="153.6" r="11.7"/>
		</g>
		<g>
			<ellipse fill="#2C4974" cx="160.7" cy="89.5" rx="11.3" ry="8.3"/>
		</g>
		<g>
			<ellipse fill="#2C4974" cx="52.5" cy="40" rx="8.3" ry="4.4"/>
		</g>
		<g>
			<ellipse fill="#2C4974" cx="87.3" cy="174.1" rx="4.4" ry="5.9"/>
		</g>
	</g>
	<g>
		<linearGradient id="SVGID_1_" gradientUnits="userSpaceOnUse" x1="2.8458" y1="99.4935" x2="100.045" y2="99.4935">
			<stop  offset="0" style="stop-color:#1A171B;stop-opacity:0.5"/>
			<stop  offset="2.616996e-02" style="stop-color:#1A171B;stop-opacity:0.4869"/>
			<stop  offset="1" style="stop-color:#1A171B;stop-opacity:0"/>
		</linearGradient>
		<path fill="url(#SVGID_1_)" d="M53,99.5c0,67.8,47,97.2,47,97.2c-53.7,0-97.2-43.5-97.2-97.2C2.8,45.8,46.4,2.3,100,2.3
			C100,2.3,53,34.2,53,99.5z"/>
	</g>
</g>
</svg>
