<?xml version="1.0" encoding="utf-8"?>
<!-- Generator: Adobe Illustrator 17.1.0, SVG Export Plug-In . SVG Version: 6.00 Build 0)  -->
<!DOCTYPE svg PUBLIC "-//W3C//DTD SVG 1.1//EN" "http://www.w3.org/Graphics/SVG/1.1/DTD/svg11.dtd">
<svg version="1.1" id="Ebene_1" xmlns="http://www.w3.org/2000/svg" xmlns:xlink="http://www.w3.org/1999/xlink" x="0px" y="0px"
	 viewBox="0 0 200 200" enable-background="new 0 0 200 200" xml:space="preserve">
<g>
	<g>
		<circle fill="#91C2AD" cx="100.2" cy="99.7" r="97.7"/>
	</g>
	<g>
		<g>
			<path fill="#0CBCB7" d="M31.2,168.7c3.8,3.8,7.9,7.2,12.3,10.4c26-4.8,65.8-8.3,111.8,1.2c7.1-4.8,13.4-10.6,19-17
				C115,151.3,59.5,161.4,31.2,168.7z"/>
		</g>
		<g>
			<path fill="#0CBCB7" d="M165.2,26.7c-40.7,7.1-97.7-1.6-122.5-6.1C36.6,25,31,30.2,26.1,35.9c37,16.2,104,41.3,169.8,44
				C191.6,58.9,180.6,40.4,165.2,26.7z"/>
		</g>
		<g>
			<path fill="#0CBCB7" d="M3,89.7c-0.3,3.2-0.5,6.5-0.5,9.9c0,3.5,0.2,7,0.6,10.4c58.7-1,108.6,22.6,6.7,26.6
				c2.3,5.6,5,10.8,8.2,15.8l173.8-18.8c3.4-9.2,5.5-19.1,6-29.3C146.1,110.8,57.5,98.7,3,89.7z"/>
		</g>
	</g>
	<g>
		<ellipse fill="#0CBCB7" cx="54.4" cy="76.1" rx="18.7" ry="5.7"/>
	</g>
	<ellipse fill="#0CBCB7" cx="126" cy="17.5" rx="5.7" ry="4.2"/>
	<ellipse fill="#0CBCB7" cx="78.3" cy="182.6" rx="5.7" ry="2.5"/>
	<ellipse fill="#0CBCB7" cx="170.3" cy="147.6" rx="3.2" ry="5.4"/>
</g>
<g>
	<linearGradient id="SVGID_1_" gradientUnits="userSpaceOnUse" x1="2.5126" y1="99.6602" x2="100.2118" y2="99.6602">
		<stop  offset="0" style="stop-color:#1A171B;stop-opacity:0.5"/>
		<stop  offset="2.616996e-02" style="stop-color:#1A171B;stop-opacity:0.4869"/>
		<stop  offset="1" style="stop-color:#1A171B;stop-opacity:0"/>
	</linearGradient>
	<path fill="url(#SVGID_1_)" d="M53,99.7c0,68.1,47.3,97.7,47.3,97.7c-54,0-97.7-43.7-97.7-97.7C2.5,45.7,46.3,2,100.2,2
		C100.2,2,53,34,53,99.7z"/>
</g>
</svg>
