<?xml version="1.0" encoding="utf-8"?>
<!-- Generator: Adobe Illustrator 19.0.0, SVG Export Plug-In . SVG Version: 6.00 Build 0)  -->
<svg version="1.1" id="Ebene_1" xmlns="http://www.w3.org/2000/svg" xmlns:xlink="http://www.w3.org/1999/xlink" x="0px" y="0px"
	 viewBox="-527 301 224.5 200" style="enable-background:new -527 301 224.5 200;" xml:space="preserve">
<style type="text/css">
	.st0{fill:none;stroke:#C6C7C8;stroke-width:2;stroke-miterlimit:10;}
	.st1{fill:#F6F6F6;}
	.st2{fill:none;}
	.st3{fill:#E2D6B1;}
	.st4{fill:#D6C377;}
	.st5{fill:#E6BEB8;}
	.st6{fill:#EF9654;}
	.st7{fill:#F6CD87;}
	.st8{fill:#AEDEF4;}
	.st9{fill:#ABDCF0;}
	.st10{fill:#F09951;}
	.st11{fill:url(#SVGID_1_);}
	.st12{opacity:0.5;fill:#FFFFFF;enable-background:new    ;}
	.st13{opacity:0.2;}
	.st14{fill:#FFFFFF;}
	.st15{fill:#1A292B;}
</style>
<line class="st0" x1="-396.7" y1="310.6" x2="-426.8" y2="392.1"/>
<circle class="st1" cx="-396.7" cy="310.6" r="2.6"/>
<polygon class="st1" points="-323.6,391.5 -416.1,357.3 -401.2,316.9 -308.7,351 -325.8,367.4 "/>
<rect x="-397.1" y="347.2" transform="matrix(0.938 0.3467 -0.3467 0.938 103.3784 145.5695)" class="st2" width="83.8" height="29"/>
<g>
	<g>
		<circle class="st3" cx="-425.2" cy="429.8" r="56.4"/>
	</g>
	<g>
		<g>
			<path class="st4" d="M-369,433.9c0.1-1.4,0.2-2.7,0.2-4.1c0-2.1-0.1-4.2-0.4-6.3c-23.1,5.9-43.4,7.9-60,7.9
				c-10.9,0-20.2-0.8-27.8-1.9c-10.3-1.5-18.5-3.6-24.4-5.5c-0.2,1.9-0.3,3.8-0.3,5.8c0,1.5,0.1,3,0.2,4.5
				C-463.7,439.9-424,448.1-369,433.9z"/>
		</g>
		<g>
			<path class="st5" d="M-371.5,447.2c1.3-4,2.1-8.1,2.5-12.4c-23.2,5.9-43.5,7.9-60.2,7.9c-10.9,0-20.2-0.8-27.8-1.9
				c-10.3-1.5-18.5-3.6-24.4-5.5c0.4,4.3,1.3,8.5,2.7,12.5C-460.1,453.2-422.6,459.8-371.5,447.2z"/>
		</g>
		<g>
			<path class="st6" d="M-370.1,417.8c-0.6-2.6-1.3-5.2-2.2-7.7c-21.8,5.3-41,7.1-56.9,7.1c-10.9,0-20.2-0.8-27.8-1.9
				c-8.6-1.3-15.8-2.9-21.4-4.6c-0.9,2.4-1.6,4.9-2.1,7.5C-462.4,423.8-423.6,431.4-370.1,417.8z"/>
		</g>
		<g>
			<path class="st7" d="M-379,397.5c-0.9-1.4-1.9-2.7-3-3.9c-17.9,4.4-33.9,5.9-47.4,5.9c-10.7,0-20-1-27.5-2.3
				c-4.5-0.8-8.7-1.7-12.4-2.7c-1,1.3-2,2.5-2.9,3.9c4.5,1.3,9.6,2.5,15.5,3.5C-439.2,405-412.4,406.2-379,397.5z"/>
		</g>
		<g>
			<path class="st6" d="M-457.5,475.8c-0.2,0-0.4-0.1-0.6-0.1c9.3,6.7,20.6,10.6,32.9,10.6c13.5,0,25.9-4.8,35.6-12.7
				c-15.3,3.3-28.9,4.6-40.6,4.6C-440.9,478.1-450.1,477.1-457.5,475.8z"/>
		</g>
		<g>
			<path class="st8" d="M-387.1,388.2c-1.8-1.7-3.8-3.2-5.8-4.7c-13.5,2.6-25.7,3.5-36.4,3.5c-10.7,0-20-1-27.5-2.3
				c-0.7-0.1-1.3-0.2-1.9-0.3c-2,1.5-3.8,3-5.6,4.7c2.4,0.5,5,1.1,7.7,1.5C-440.6,393.4-416.8,394.7-387.1,388.2z"/>
		</g>
		<g>
			<path class="st4" d="M-394,382.8c-9-6-19.7-9.5-31.3-9.5c-12.2,0-23.4,3.9-32.6,10.4c0.4,0.1,0.8,0.1,1.1,0.2
				C-441.9,386.5-420.4,387.8-394,382.8z"/>
		</g>
		<g>
			<path class="st9" d="M-369.5,421c-54.4,13.9-93.7,6-111.6,0.4l-0.1,0.9c5.9,1.9,14.1,3.9,24.2,5.4c7.6,1.2,17,2,27.8,2
				c16.6,0,36.8-2,59.8-7.8L-369.5,421z"/>
		</g>
		<path class="st10" d="M-429.2,455.3c16,0,35.3-1.8,57.3-7.2c0.1-0.3,0.2-0.6,0.3-0.9c-51.1,12.6-88.6,6.1-107.2,0.6
			c0.1,0.3,0.2,0.7,0.4,1c5.6,1.6,12.8,3.3,21.4,4.6C-449.4,454.5-440,455.3-429.2,455.3z"/>
		<g>
			<path class="st8" d="M-457.3,463.1c-6.1-1.1-11.5-2.5-16.1-3.9c0.2,0.4,0.5,0.7,0.7,1.1c1,1.6,2.1,3.1,3.3,4.6
				c0.3,0.4,0.6,0.8,0.9,1.1c3.3,0.9,7,1.7,10.9,2.4c7.5,1.3,16.6,2.4,27.3,2.4c14.1,0,30.8-1.7,49.8-6.8c0.3-0.4,0.6-0.7,0.8-1.1
				c1.1-1.4,2-2.9,3-4.5c0.2-0.3,0.4-0.7,0.6-1C-411.5,467.6-439.4,466.4-457.3,463.1z"/>
		</g>
		<g>
			<path class="st4" d="M-457.3,474.9c-0.8-0.1-1.6-0.3-2.3-0.4c0.5,0.4,1,0.8,1.6,1.2c0.2,0,0.4,0.1,0.6,0.1
				c7.5,1.3,16.6,2.4,27.3,2.4c11.8,0,25.4-1.2,40.6-4.6c0.5-0.4,0.9-0.8,1.4-1.2C-417.9,479.1-441.5,477.8-457.3,474.9z"/>
		</g>
		<g>
			<path class="st5" d="M-374.1,405.8c-0.1-0.3-0.2-0.5-0.4-0.8c-0.3-0.6-0.6-1.3-1-1.9c-0.1-0.3-0.3-0.5-0.4-0.8
				c-34.9,9.6-62.7,8.4-80.8,5.3c-7.1-1.2-13.3-2.8-18.4-4.4c-0.1,0.3-0.3,0.5-0.4,0.8c-0.3,0.6-0.6,1.2-0.9,1.8
				c-0.1,0.3-0.2,0.5-0.4,0.8c-0.5,1.1-0.9,2.1-1.3,3.2c18.7,5.3,55.5,11.6,105.4-0.6C-373.1,408.2-373.6,407-374.1,405.8z"/>
		</g>
		<path class="st10" d="M-382.6,392.8c-0.4-0.4-0.7-0.8-1.1-1.2c-0.2-0.2-0.5-0.5-0.7-0.7c-30.9,7.2-55.8,6-72.3,3.2
			c-3.7-0.6-7.2-1.4-10.3-2.2c-0.2,0.2-0.4,0.5-0.6,0.7c-0.4,0.4-0.7,0.8-1,1.2c-0.2,0.2-0.4,0.5-0.6,0.7c3.7,1,7.9,1.9,12.4,2.7
			c7.5,1.3,16.8,2.3,27.5,2.3c13.6,0,29.5-1.6,47.4-5.9C-382.2,393.3-382.4,393.1-382.6,392.8z"/>
	</g>
</g>
<g>
	
		<linearGradient id="SVGID_1_" gradientUnits="userSpaceOnUse" x1="-481.7" y1="374.2" x2="-425.3" y2="374.2" gradientTransform="matrix(1 0 0 -1 0 804)">
		<stop  offset="0" style="stop-color:#1A171B;stop-opacity:0.5"/>
		<stop  offset="2.616996e-002" style="stop-color:#1A171B;stop-opacity:0.4869"/>
		<stop  offset="1" style="stop-color:#1A171B;stop-opacity:0"/>
	</linearGradient>
	<path class="st11" d="M-452.6,429.8c0,39.4,27.3,56.4,27.3,56.4c-31.2,0-56.4-25.3-56.4-56.4c0-31.2,25.3-56.4,56.4-56.4
		C-425.3,373.4-452.6,391.9-452.6,429.8z"/>
</g>
<g>
	<path class="st12" d="M-369.6,420.5c0.2,1,0.3,2,0.4,3c21.5,15.3,33.4,30.6,29.1,40.1c-4,8.9-21.4,10.5-45,5.8
		c-15.3-3.1-33.3-8.9-51.8-17.2c-17.1-7.8-32.5-16.7-44.7-25.5c-20.7-15-32.2-30-28-39.2c4.4-9.8,25.1-10.8,52.4-4.1
		c0.8-0.6,1.6-1.1,2.5-1.6c-35.1-9.4-62.8-8.1-68.7,5.1c-6.2,13.8,12.2,38.3,44.3,59.8c10.6,7.1,22.7,13.9,36,19.8
		c14.4,6.5,28.6,11.3,41.9,14.5c36,8.8,64.9,6,70.9-7.4C-324.6,460.6-340.9,440-369.6,420.5z"/>
	<g class="st13">
		<path class="st14" d="M-368.8,427.8c0,0.7,0.1,1.3,0.1,2c0,0.7,0,1.4-0.1,2.1c6,5.3,8.9,9.9,7.6,12.8c-1.1,2.4-4.8,3.4-10.5,3.1
			c-12.1-0.5-33-6.5-55.6-16.7c-20.9-9.4-38.3-20-47.4-28.4c-5.4-5-7.9-9.2-6.7-11.9c1.5-3.3,8.1-3.9,17.8-2.3c1-0.9,1.9-1.7,3-2.6
			c-20.4-4.5-35.3-3.6-38.4,3.5c-2.9,6.5,4.4,17.7,18.4,29.5c11.5,9.6,27.5,19.7,46.2,28.1c20,9,39.4,14.4,54.7,16.2
			c16.6,2,28.5-0.1,31.3-6.2C-345.4,450.2-353.6,439.3-368.8,427.8z"/>
	</g>
</g>
<g>
	<path class="st15" d="M-387.9,355.5l6.5-17.7l-6.5,9.8l-3.1-1.1l1.3-11.7l-6.5,17.7l-3.6-1.3l7.6-20.7l6.2,2.3l-1.2,8.6l4.7-7.3
		l5.9,2.2l-7.6,20.7L-387.9,355.5z"/>
	<path class="st15" d="M-374.6,353.7c-0.7,2.2-0.4,3.1,1.4,3.7c1.6,0.6,3.4,0.9,4.3,1.1l-1.2,3.3c-1-0.1-3.2-0.6-4.3-1
		c-4.3-1.6-6.1-3.4-3.6-10c2-5.5,5-6.9,8.9-5.4c4.5,1.6,4.7,4.5,3.2,8.7l-0.9,2.5L-374.6,353.7z M-373.5,350.8l3.8,1.4l0.3-0.8
		c0.5-1.4,0.2-2.4-1.1-2.9C-371.6,348.1-372.5,348.7-373.5,350.8z"/>
	<path class="st15" d="M-365.8,363.7l5.4-14.8l3.2,1.2l-0.2,1.3c1.2-0.5,2.6-0.6,4.1-0.1c4.1,1.5,4.1,3.6,2.6,7.6l-3.4,9.2l-3.9-1.4
		l3.4-9.3c0.7-2,0.3-2.6-0.8-3c-1.5-0.6-2.6,0.2-3,1.2l-3.5,9.6L-365.8,363.7z"/>
	<path class="st15" d="M-341.1,355.9l-3.4,9.4c-0.7,2-0.2,2.5,0.8,2.9c1.5,0.6,2.5-0.4,2.9-1.4l3.5-9.4l3.9,1.4l-5.4,14.8l-3.2-1.2
		l0.2-1.3c-1.2,0.5-2.6,0.7-4,0.1c-3.7-1.4-3.9-3.6-2.5-7.5l3.4-9.3L-341.1,355.9z M-338.4,351.1 M-343.5,353.1"/>
</g>
</svg>
