<?xml version="1.0" encoding="utf-8"?>
<!-- Generator: Adobe Illustrator 17.1.0, SVG Export Plug-In . SVG Version: 6.00 Build 0)  -->
<!DOCTYPE svg PUBLIC "-//W3C//DTD SVG 1.1//EN" "http://www.w3.org/Graphics/SVG/1.1/DTD/svg11.dtd">
<svg version="1.1" id="Ebene_1" xmlns="http://www.w3.org/2000/svg" xmlns:xlink="http://www.w3.org/1999/xlink" x="0px" y="0px"
	 viewBox="0 0 200 200" enable-background="new 0 0 200 200" xml:space="preserve">
<g>
	<circle fill="#959596" cx="100.5" cy="99" r="97.4"/>
</g>
<g>
	<g>
		<g>
			<path fill="#696C70" d="M135.8,29.5c-3.8,4.5-12.7,18.4-17.6,21.7C110.8,56.1,88,57,76.2,60c-9.6,2.4-25.3,14.2-16.5,18.8
				C78,88.3,169.9,62.2,175.5,82c3.6,12.7-46.5,10.4-47.1,23.5c-0.3,7.7,21.7,9,29.4,8.8c10.5-0.2,29.6-9,40-18.4
				c-1-33.7-19.1-63.1-45.9-79.8C145.3,20.2,139.4,25.1,135.8,29.5z"/>
		</g>
		<g>
			<path fill="#696C70" d="M98,151.2c2.7-4.5-5.2-16-9.8-18.6c-10.7-6-40.1,11.4-49,2.9c-2.3-2.2-2.3-10.6,0-12.7
				c2.9-2.7,11.8,1.7,15.7,1c5.3-1,19.4-3.5,19.6-8.8c0.2-5.8-15.1-9-20.6-10.8c-10.4-3.3-37.7-6.1-50.7-7.2c0,0.7-0.1,1.4-0.1,2.1
				c0,19.1,5.5,36.9,15,52c11.1,4.3,29.4,4.8,38.7,5.2C67.2,156.5,92.7,160,98,151.2z"/>
		</g>
		<path fill="#696C70" d="M184.3,148.6c-6.4-0.9-13.7-1.4-21.5-1.4c-25.5,0-46.1,5.3-46.1,11.8c0,6.5,20.6,11.8,46.1,11.8
			c1.2,0,2.4,0,3.5,0C173.3,164.3,179.4,156.8,184.3,148.6z"/>
		<path fill="#696C70" d="M90.2,27.6c0-4.3-20.6-7.7-46.3-7.8c-6.2,4.4-11.8,9.5-16.8,15.3c4.9,0.3,10.1,0.4,15.5,0.4
			C68.9,35.5,90.2,32,90.2,27.6z"/>
	</g>
</g>
<linearGradient id="SVGID_1_" gradientUnits="userSpaceOnUse" x1="3.1791" y1="98.9934" x2="100.5449" y2="98.9934">
	<stop  offset="0" style="stop-color:#1A171B;stop-opacity:0.5"/>
	<stop  offset="2.616996e-02" style="stop-color:#1A171B;stop-opacity:0.4869"/>
	<stop  offset="1" style="stop-color:#1A171B;stop-opacity:0"/>
</linearGradient>
<path fill="url(#SVGID_1_)" d="M53.4,99c0,67.9,47.1,97.4,47.1,97.4c-53.8,0-97.4-43.6-97.4-97.4c0-53.8,43.6-97.4,97.4-97.4
	C100.5,1.6,53.4,33.6,53.4,99z"/>
</svg>
