<?xml version="1.0" encoding="utf-8"?>
<!-- Generator: Adobe Illustrator 17.1.0, SVG Export Plug-In . SVG Version: 6.00 Build 0)  -->
<!DOCTYPE svg PUBLIC "-//W3C//DTD SVG 1.1//EN" "http://www.w3.org/Graphics/SVG/1.1/DTD/svg11.dtd">
<svg version="1.1" id="Ebene_1" xmlns="http://www.w3.org/2000/svg" xmlns:xlink="http://www.w3.org/1999/xlink" x="0px" y="0px"
	 viewBox="0 0 200 200" enable-background="new 0 0 200 200" xml:space="preserve">
<g>
	<g>
		<circle fill="#CE6F3E" cx="99.7" cy="99.7" r="97.5"/>
	</g>
	<g>
		<g>
			<g>
				<path fill="#F8E2B2" d="M48.1,182.5c6.6,4.1,13.7,7.5,21.1,9.9c0.7-20.1,65.5-29.4,124.5-66c1.1-3.9,2-7.8,2.6-11.9
					c-11.1,4.1-57.5,33.8-84.3,37.7C85.7,156.2,66.3,166.9,48.1,182.5z"/>
			</g>
			<g>
				<path fill="#792F10" d="M65.6,85.7c18.4-21.1,18.7-3.5,27.7-9.8c4.5-3.2,32.9-3.3,45.3-10.7c20.5-12.2,3.6-28.3,27.3-36.9
					c-2.2-2-4.5-4-6.9-5.8C140.3,29.7,54.2,64,44.4,85.8c0,0-15,24.1-40.5,31.3c0.6,3.1,1.3,6.2,2.1,9.2
					C18.5,120,50.9,102.5,65.6,85.7z"/>
			</g>
			<g>
				<path fill="#BD7E48" d="M152.9,18.1c-7.7-5-16-8.8-24.8-11.5C119.2,17.9,92,39.9,9.4,63.8c-2.3,5.7-4,11.6-5.2,17.6
					C23.1,70.8,85.3,37.3,152.9,18.1z"/>
			</g>
			<g>
				<path fill="#792F10" d="M69.2,192.5c10,3.3,20.6,5.1,31.3,5c5.9-15,28.5-16,47.3-26.5c17.1-9.6,30.1-29.3,42.3-33.7
					c1.4-3.5,2.7-7,3.7-10.7c-12.8,4.6-38,31.4-48.3,35.6C77.5,189.2,73.2,183.7,69.2,192.5z"/>
			</g>
			<g>
				<path fill="#ED5D21" d="M21.2,157.5c7.4,10.1,16.6,18.5,26.9,25c15.4-31.7,36.1-29.8,58-41.3c9.3-4.9,29.4-14.1,37.3-15.2
					c26.7-3.8,41.9-7.2,53-11.3c0.4-2.5,0.7-5.1,0.8-7.7c-11.1,1.7-17.6,6.5-27.1,7.2C105.6,119.4,79.3,125.6,21.2,157.5z"/>
			</g>
			<path fill="#F8E2B2" d="M137.9,62.8c-12.4,7.4-35,4.7-40.6,4.7c-8.8,0-13.3-2.9-31.7,18.2c-6.8,7.8-17.3,15.7-27.9,22.5
				c-12.4,8.1-24.9,14.7-31.6,18.1c1.1,3.8,2.4,7.6,3.9,11.3c0,0,0,0,0,0c10.2-10.3,19.7-10.9,27-12.1c15.5-2.7,17.7-8.3,57.1-26.3
				c21.7-9.9,26.6-12.2,47.6-21.8c32.7-15,30.5-24.1,41.6-28.1c-4.8-8-10.7-15-17.3-21.1C142.2,36.9,158.3,50.6,137.9,62.8z"/>
			<g>
				<path fill="#ED5D21" d="M56.9,82.7c17.4-16.3,83.4-53,102.1-60.3c-2-1.5-4-3-6.1-4.3c-17.6,5-34.9,10.9-51.1,17.2
					c-18.7,7.2-36,14.9-50.9,22C29.2,67.6,12.5,76.7,4.2,81.4C1.9,93,1.8,105.1,3.9,117.1c14.9-4.3,29-11.6,35.8-19.2
					C44.6,92.5,51.6,87.6,56.9,82.7z"/>
			</g>
			<path fill="#F8E2B2" d="M128.1,6.6c-4.7-1.4-9.5-2.5-14.3-3.2C97.3,13.8,82.7,8.8,68.6,14.3c-19.2,7.5-36.2,23.8-45.5,25.5
				c-5.7,7.3-10.3,15.4-13.8,24C46.7,53,47.5,41.3,65.7,32.1C87.7,20.9,123.3,12.8,128.1,6.6z"/>
			<g>
				<path fill="#BD7E48" d="M14.5,146.9c0.8,1.4,1.5,2.7,2.4,4.1c18.1-25.9,45.8-19.8,98.8-35.3c22.3-6.5,58.8-24.1,81.4-25
					c-0.8-8.6-2.8-17.2-6-25.6C112.3,117.9,79.1,100.6,14.5,146.9z"/>
			</g>
		</g>
	</g>
</g>
</svg>
