<?xml version="1.0" encoding="utf-8"?>
<!-- Generator: Adobe Illustrator 17.1.0, SVG Export Plug-In . SVG Version: 6.00 Build 0)  -->
<!DOCTYPE svg PUBLIC "-//W3C//DTD SVG 1.1//EN" "http://www.w3.org/Graphics/SVG/1.1/DTD/svg11.dtd">
<svg version="1.1" id="Ebene_1" xmlns="http://www.w3.org/2000/svg" xmlns:xlink="http://www.w3.org/1999/xlink" x="0px" y="0px"
	 viewBox="0 0 80 120" enable-background="new 0 0 80 120" xml:space="preserve">
<g>
	<path fill="#FF8700" d="M74.2,63.3l-54.5,54.5c-0.7,0.7-1.8,1.2-2.7,1.2s-2-0.5-2.7-1.2L8.4,112c-0.7-0.7-1.2-1.6-1.2-2.7
		c0-0.9,0.5-2,1.2-2.7l46-46l-46-46c-0.7-0.7-1.2-1.8-1.2-2.7s0.5-2,1.2-2.7l5.9-5.9C15,2.7,16,2.2,17,2.2s2,0.5,2.7,1.2l54.5,54.5
		c0.7,0.7,1.2,1.8,1.2,2.7S74.9,62.6,74.2,63.3z"/>
</g>
</svg>
