<?xml version="1.0" encoding="utf-8"?>
<!-- Generator: Adobe Illustrator 19.0.0, SVG Export Plug-In . SVG Version: 6.00 Build 0)  -->
<svg version="1.1" id="Ebene_1" xmlns="http://www.w3.org/2000/svg" xmlns:xlink="http://www.w3.org/1999/xlink" x="0px" y="0px"
	 viewBox="160 37.4 1280 486.6" style="enable-background:new 160 37.4 1280 486.6;" xml:space="preserve">
<style type="text/css">
	.st0{fill:#7E7565;}
</style>
<path class="st0" d="M159.1,277.9l-0.1,38.5l198.7,64.2l81.7-13.6l6.7-27c19,1.7,36-12.1,38.3-31.2c2.3-19.4-11.6-37.1-31.1-39.3
	c-10.2-1.2-19.8,2-27,8.2c-1.8-22.3-19.1-41-42.2-43.7c-23-2.7-44.1,11.4-51.1,32.5c-6.4-15.5-20.8-27.2-38.7-29.3
	c-11.5-1.4-22.6,1.5-31.6,7.3c-0.8-27.6-21.7-51.2-50-54.5c-21.8-2.6-42.2,7.6-53.6,24.7V277.9z"/>
<path class="st0" d="M1440,190c-9.8-28.7-38-48.3-69.7-46c-35.6,2.6-62.8,32.1-63.3,67.1c-7.5-3.4-16-5.1-24.8-4.4
	c-22.9,1.7-41.1,18.3-45.9,39.7c-5.2-4.7-11.7-8.1-18.7-9.8c7.9-10.5,12.6-23.5,12.6-37.6c0-10.3-2.5-20.1-7-28.7c0.2,0,0.4,0,0.6,0
	c18.7,0,33.8-15.1,33.8-33.8c0-12.2-6.4-22.8-16.1-28.8c7.1-2.8,12.1-9.6,12.1-17.7c0-7.6-4.5-14.1-10.9-17.1
	c4.1-3.5,6.7-8.7,6.7-14.5c0-10.5-8.5-19-19-19s-19,8.5-19,19c0,2.2,0.4,4.3,1.1,6.3c-0.4,0-0.7-0.1-1.1-0.1c-10.5,0-19,8.5-19,19
	c0,2.6,0.5,5,1.4,7.3c-15,3.5-26.2,16.9-26.2,32.9c0,4.5,0.9,8.8,2.5,12.7c-0.8,0-1.6-0.1-2.5-0.1c-34.5,0-62.4,28-62.4,62.4
	c0,7.2,1.2,14.2,3.5,20.6c-2.4-0.1-4.7,0-7.1,0.1c-29.4,2.2-53,22.6-60.7,49.3c-8-6.5-18.5-10.1-29.6-9.3
	c-15.5,1.1-28.4,10.5-34.8,23.6C971,275,961.4,270,951,270.8c-7.9,0.6-14.7,4.3-19.5,9.8c-2.1-15.5-15.4-27.5-31.5-27.5
	c-14.6,0-26.8,9.8-30.6,23.2c-4.9-5.4-12-8.8-19.9-8.8c-14.9,0-27,12.1-27,27c0,14.9,12.1,27,27,27c11.5,0,21.3-7.2,25.2-17.4
	c5.8,7.6,15,12.6,25.3,12.6c10.2,0,19.3-4.8,25.1-12.3c0.4,2.4,1.2,4.6,2.1,6.7l0,0l0,0c4.8,10.5,15.7,17.4,27.9,16.5
	c6.6-0.5,12.5-3.2,17.1-7.4l5,1c7.6,14.3,23.1,23.5,40.2,22.2c9-0.7,17-4.1,23.5-9.4l19.4,3.9c13.4,12.3,31.7,19.3,51.3,17.9
	c6.4-0.5,12.4-1.8,18.2-3.9l85,17.2l225.1-83.4v-44.6L1440,190z"/>
</svg>
